<?xml version="1.0" encoding="UTF-8"?><svg id="Layer_1" xmlns="http://www.w3.org/2000/svg" viewBox="0 0 286.48 52.2"><defs><style>.cls-1{fill:#673b90;}.cls-2{fill:#f99702;}.cls-2,.cls-3,.cls-4,.cls-5,.cls-6,.cls-7,.cls-8,.cls-9,.cls-10,.cls-11,.cls-12,.cls-13,.cls-14,.cls-15,.cls-16,.cls-17{fill-rule:evenodd;}.cls-3{fill:#f95503;}.cls-4{fill:#fac800;}.cls-5{fill:#7d189f;}.cls-6{fill:#52296b;}.cls-7{fill:#86be29;}.cls-8{fill:#700767;}.cls-9{fill:#d30f1b;}.cls-10{fill:#bd0065;}.cls-11{fill:#9f1881;}.cls-12{fill:#fae900;}.cls-13{fill:#00a8e7;}.cls-14{fill:#006289;}.cls-15{fill:#0070e7;}.cls-16{fill:#00952d;}.cls-17{fill:#009563;}</style></defs><g><path class="cls-1" d="m71.62,11.87h5.79l12.24,28.76h-6.57l-2.61-6.41h-12.08l-2.61,6.41h-6.41l12.24-28.76Zm6.61,16.81l-3.79-9.26-3.79,9.26h7.59Z"/><path class="cls-1" d="m90.63,36.47l3.71-4.45c2.57,2.12,5.26,3.47,8.53,3.47,2.57,0,4.12-1.02,4.12-2.69v-.08c0-1.59-.98-2.41-5.75-3.63-5.75-1.47-9.47-3.06-9.47-8.73v-.08c0-5.18,4.16-8.61,10-8.61,4.16,0,7.71,1.31,10.61,3.63l-3.26,4.73c-2.53-1.75-5.02-2.82-7.43-2.82s-3.67,1.1-3.67,2.49v.08c0,1.88,1.22,2.49,6.16,3.75,5.79,1.51,9.06,3.59,9.06,8.57v.08c0,5.67-4.32,8.85-10.48,8.85-4.32,0-8.69-1.51-12.12-4.57Z"/><path class="cls-1" d="m117.63,12.07h6.28v11.3h11.59v-11.3h6.28v28.56h-6.28v-11.46h-11.59v11.46h-6.28V12.07Z"/><path class="cls-1" d="m157.37,11.87h5.79l12.24,28.76h-6.57l-2.61-6.41h-12.08l-2.61,6.41h-6.41l12.24-28.76Zm6.61,16.81l-3.79-9.26-3.79,9.26h7.59Z"/><path class="cls-1" d="m188.49,35.65l9.51-7.79c3.55-2.94,4.94-4.49,4.94-6.85s-1.59-3.71-3.84-3.71-3.71,1.22-5.83,3.84l-4.41-3.55c2.82-3.84,5.55-5.92,10.65-5.92,5.92,0,9.83,3.47,9.83,8.81v.08c0,4.77-2.45,7.14-7.51,11.06l-4.65,3.59h12.44v5.43h-21.13v-4.98Z"/><path class="cls-1" d="m213.05,26.43v-.08c0-8.28,5.14-14.77,12.73-14.77s12.65,6.41,12.65,14.69v.08c0,8.28-5.1,14.77-12.73,14.77s-12.65-6.41-12.65-14.69Zm18.93,0v-.08c0-5.18-2.53-9.1-6.28-9.1s-6.2,3.79-6.2,9.02v.08c0,5.22,2.49,9.1,6.28,9.1s6.2-3.84,6.2-9.02Z"/><path class="cls-1" d="m241.16,35.65l9.51-7.79c3.55-2.94,4.94-4.49,4.94-6.85s-1.59-3.71-3.84-3.71-3.71,1.22-5.83,3.84l-4.41-3.55c2.82-3.84,5.55-5.92,10.65-5.92,5.92,0,9.83,3.47,9.83,8.81v.08c0,4.77-2.45,7.14-7.51,11.06l-4.65,3.59h12.44v5.43h-21.13v-4.98Z"/><path class="cls-1" d="m265.06,36.18l4.33-4.12c1.96,2.2,4,3.43,6.89,3.43,2.37,0,4.04-1.35,4.04-3.47v-.08c0-2.33-2.08-3.63-5.59-3.63h-2.61l-.98-4,6.81-6.85h-11.22v-5.39h19.3v4.73l-7.22,6.9c3.88.65,7.67,2.69,7.67,8v.08c0,5.39-3.92,9.34-10.28,9.34-5.14,0-8.69-2.04-11.14-4.94Z"/></g><g><path class="cls-17" d="m26.1,26.1l2.17,4.4c-.17.08-.34.15-.51.22l-1.66-4.62h0Zm2.57,5.2l1.81,3.67c-.33.17-.68.31-1.03.44l-1.38-3.85c.21-.07.41-.16.61-.26h0Zm2.48,5.04l2.77,5.62-.34,1.78-1.51-.99-2.12-5.9c.41-.15.81-.32,1.19-.51Z"/><path class="cls-10" d="m26.1,26.1l-1.66-4.62c-.18.06-.35.14-.51.22l2.17,4.4h0Zm-1.96-5.46l-1.38-3.85c-.35.13-.7.27-1.03.44l1.81,3.67c.2-.1.4-.18.61-.26h0Zm-1.9-5.29l-2.12-5.9-1.51-.99-.34,1.78,2.77,5.62c.39-.19.78-.36,1.19-.51Z"/><path class="cls-3" d="m26.1,26.1l2.09-4.44c-.17-.08-.34-.15-.52-.21l-1.58,4.65h0Zm2.47-5.25l1.75-3.7c-.34-.16-.68-.3-1.04-.42l-1.32,3.88c.21.07.41.15.61.25h0Zm2.4-5.08l2.67-5.67-.37-1.77-1.49,1.02-2.01,5.94c.41.14.81.3,1.2.49Z"/><path class="cls-4" d="m26.1,26.1l4.62-1.66c-.06-.18-.14-.35-.22-.51l-4.4,2.17h0Zm5.46-1.96l3.85-1.38c-.13-.35-.27-.7-.44-1.03l-3.67,1.81c.1.2.18.4.26.61h0Zm5.29-1.9l5.9-2.12.99-1.51-1.78-.34-5.62,2.77c.19.39.36.78.51,1.19Z"/><path class="cls-7" d="m26.1,26.1l4.44,2.1c.08-.17.15-.34.21-.52l-4.65-1.58h0Zm5.25,2.47l3.7,1.75c.16-.34.3-.68.42-1.04l-3.88-1.32c-.07.21-.15.41-.25.61h0Zm5.08,2.4l5.67,2.67,1.77-.37-1.02-1.49-5.94-2.01c-.14.41-.3.81-.49,1.2Z"/><path class="cls-15" d="m26.1,26.1l-2.1,4.44c.17.08.34.15.52.21l1.58-4.65h0Zm-2.47,5.25l-1.75,3.7c.34.16.68.3,1.04.42l1.32-3.88c-.21-.07-.41-.15-.61-.25h0Zm-2.4,5.08l-2.67,5.67.37,1.77,1.49-1.02,2.01-5.94c-.41-.14-.81-.3-1.2-.49Z"/><path class="cls-5" d="m26.1,26.1l-4.62,1.66c.06.18.14.35.22.51l4.4-2.17h0Zm-5.46,1.96l-3.85,1.38c.13.35.27.7.44,1.03l3.67-1.81c-.1-.2-.18-.4-.26-.61h0Zm-5.29,1.9l-5.9,2.12-.99,1.51,1.78.34,5.62-2.77c-.19-.39-.36-.78-.51-1.19Z"/><path class="cls-8" d="m26.1,26.1l-4.44-2.1c-.08.17-.15.34-.21.52l4.65,1.58h0Zm-5.25-2.47l-3.7-1.75c-.16.34-.3.68-.42,1.04l3.88,1.32c.07-.21.15-.41.25-.61h0Zm-5.08-2.4l-5.67-2.67-1.77.37,1.02,1.49,5.94,2.01c.14-.41.3-.81.49-1.2Z"/><path class="cls-9" d="m26.1,26.1l.2-4.91c-.07,0-.14,0-.21,0s-.14,0-.2,0l.2,4.91h0Zm.24-5.79l.17-4.09c-.14,0-.27,0-.41,0s-.28,0-.41,0l.17,4.09c.08,0,.16,0,.24,0s.16,0,.24,0h0Zm.23-5.61l.53-12.65-1-2.05-1,2.05.53,12.65c.16,0,.32-.01.48-.01s.32,0,.48.01Z"/><path class="cls-2" d="m26.1,26.1l3.61-3.32c-.09-.1-.19-.2-.29-.29l-3.32,3.61h0Zm4.27-3.93l3.01-2.77c-.19-.2-.38-.4-.58-.58l-2.77,3.01c.12.11.23.22.34.34h0Zm4.13-3.8l9.32-8.57.74-2.16-2.16.74-8.57,9.32c.23.21.46.44.67.67Z"/><path class="cls-12" d="m26.1,26.1l4.91.2c0-.07,0-.14,0-.21s0-.14,0-.2l-4.91.2h0Zm5.79.24l4.09.17c0-.14,0-.27,0-.41s0-.28,0-.41l-4.09.17c0,.08,0,.16,0,.24s0,.16,0,.24h0Zm5.61.23l12.65.53,2.05-1-2.05-1-12.65.53c0,.16.01.32.01.48s0,.32-.01.48Z"/><path class="cls-16" d="m26.1,26.1l3.32,3.61c.1-.09.2-.19.29-.29l-3.61-3.32h0Zm3.93,4.27l2.77,3.01c.2-.19.4-.38.58-.58l-3.01-2.77c-.11.12-.22.23-.34.34h0Zm3.8,4.13l8.57,9.32,2.16.74-.74-2.16-9.32-8.57c-.21.23-.44.46-.67.67Z"/><path class="cls-13" d="m26.1,26.1l-.2,4.91c.07,0,.14,0,.21,0s.14,0,.2,0l-.2-4.91h0Zm-.24,5.79l-.17,4.09c.14,0,.27,0,.41,0s.28,0,.41,0l-.17-4.09c-.08,0-.16,0-.24,0s-.16,0-.24,0h0Zm-.23,5.61l-.53,12.65,1,2.05,1-2.05-.53-12.65c-.16,0-.32.01-.48.01s-.32,0-.48-.01Z"/><path class="cls-14" d="m26.1,26.1l-3.61,3.32c.09.1.19.2.29.29l3.32-3.61h0Zm-4.27,3.93l-3.01,2.77c.19.2.38.4.58.58l2.77-3.01c-.12-.11-.23-.22-.34-.34h0Zm-4.13,3.8l-9.32,8.57-.74,2.16,2.16-.74,8.57-9.32c-.23-.21-.46-.44-.67-.67Z"/><path class="cls-11" d="m26.1,26.1l-4.91-.2c0,.07,0,.14,0,.21s0,.14,0,.2l4.91-.2h0Zm-5.79-.24l-4.09-.17c0,.14,0,.27,0,.41s0,.28,0,.41l4.09-.17c0-.08,0-.16,0-.24s0-.16,0-.24h0Zm-5.61-.23l-12.65-.53-2.05,1,2.05,1,12.65-.53c0-.16-.01-.32-.01-.48s0-.32.01-.48Z"/><path class="cls-6" d="m26.1,26.1l-3.32-3.61c-.1.09-.2.19-.29.29l3.61,3.32h0Zm-3.93-4.27l-2.77-3.01c-.2.19-.4.38-.58.58l3.01,2.77c.11-.12.22-.23.34-.34h0Zm-3.8-4.13l-8.57-9.32-2.16-.74.74,2.16,9.32,8.57c.21-.23.44-.46.67-.67Z"/></g></svg>